<svg width="100" height="100" viewBox="0 0 100 100" fill="none" xmlns="http://www.w3.org/2000/svg">
<g id="Group 2">
<circle id="Oval" opacity="0.6" cx="50" cy="50" r="50" fill="#F0F0F0"/>
<g id="Group 3780">
<path id="path16" d="M50.0002 34.4173H49.2084C47.941 34.4173 46.9315 35.6666 46.9938 37.1576L47.7879 56.1342C47.8459 57.5238 48.8188 58.6159 50.0002 58.6172C51.1813 58.6159 52.1542 57.5238 52.2124 56.1342L53.0065 37.1576C53.0688 35.6666 52.0593 34.4173 50.7919 34.4173H50.0002Z" fill="#A3A9AF"/>
<path id="path18" d="M50.0003 60.2652C48.2916 60.2652 46.9062 61.6503 46.9062 63.359C46.9062 65.0678 48.2916 66.4531 50.0003 66.4531C51.7091 66.4531 53.0942 65.0678 53.0942 63.359C53.0942 61.6503 51.7091 60.2652 50.0003 60.2652Z" fill="#A3A9AF"/>
<path id="path20" d="M50.0001 23.565C49.7655 23.565 49.1818 23.6308 48.83 24.2406L23.7535 67.6741C23.4014 68.2838 23.6363 68.8222 23.7535 69.0253C23.8708 69.2284 24.2196 69.7008 24.9237 69.7008H75.0765C75.7804 69.7008 76.1293 69.2284 76.2466 69.0253C76.3639 68.8222 76.5987 68.2838 76.2466 67.6741L51.1703 24.2406C50.8181 23.6308 50.2347 23.565 50.0001 23.565ZM75.0765 73.2656H24.9237C23.1465 73.2656 21.555 72.3467 20.6664 70.8076C19.7779 69.2685 19.7779 67.4308 20.6664 65.8918L45.7428 22.4583C46.6313 20.9192 48.2228 20.0005 50.0001 20.0005C51.7772 20.0005 53.3687 20.9192 54.2572 22.4583L79.3336 65.8918C80.2221 67.4308 80.2221 69.2688 79.3336 70.8076C78.445 72.3467 76.8536 73.2656 75.0765 73.2656Z" fill="#A3A9AF"/>
</g>
</g>
</svg>
