<svg width="988" height="2080" viewBox="0 0 988 2080" fill="none" xmlns="http://www.w3.org/2000/svg">
<rect width="988" height="2080" fill="white"/>
<rect width="232" height="400" rx="8" fill="white"/>
<rect width="232" height="232" fill="#F9F9F9"/>
<rect width="232" height="168" transform="translate(0 232)" fill="white"/>
<rect x="16" y="248" width="208" height="20" rx="4" fill="#F9F9F9"/>
<rect x="16" y="280" width="120" height="32" rx="4" fill="#F9F9F9"/>
<rect x="16" y="324" width="160" height="20" rx="4" fill="#F9F9F9"/>
<rect x="16" y="356" width="84" height="28" rx="4" fill="#F9F9F9"/>
<rect x="252" width="232" height="400" rx="8" fill="white"/>
<rect width="232" height="232" transform="translate(252)" fill="#F9F9F9"/>
<rect width="232" height="168" transform="translate(252 232)" fill="white"/>
<rect x="268" y="248" width="208" height="20" rx="4" fill="#F9F9F9"/>
<rect x="268" y="280" width="120" height="32" rx="4" fill="#F9F9F9"/>
<rect x="268" y="324" width="160" height="20" rx="4" fill="#F9F9F9"/>
<rect x="268" y="356" width="84" height="28" rx="4" fill="#F9F9F9"/>
<rect x="504" width="232" height="400" rx="8" fill="white"/>
<rect width="232" height="232" transform="translate(504)" fill="#F9F9F9"/>
<rect width="232" height="168" transform="translate(504 232)" fill="white"/>
<rect x="520" y="248" width="208" height="20" rx="4" fill="#F9F9F9"/>
<rect x="520" y="280" width="120" height="32" rx="4" fill="#F9F9F9"/>
<rect x="520" y="324" width="160" height="20" rx="4" fill="#F9F9F9"/>
<rect x="520" y="356" width="84" height="28" rx="4" fill="#F9F9F9"/>
<rect x="756" width="232" height="400" rx="8" fill="white"/>
<rect width="232" height="232" transform="translate(756)" fill="#F9F9F9"/>
<rect width="232" height="168" transform="translate(756 232)" fill="white"/>
<rect x="772" y="248" width="208" height="20" rx="4" fill="#F9F9F9"/>
<rect x="772" y="280" width="120" height="32" rx="4" fill="#F9F9F9"/>
<rect x="772" y="324" width="160" height="20" rx="4" fill="#F9F9F9"/>
<rect x="772" y="356" width="84" height="28" rx="4" fill="#F9F9F9"/>
<rect y="420" width="232" height="400" rx="8" fill="white"/>
<rect width="232" height="232" transform="translate(0 420)" fill="#F9F9F9"/>
<rect width="232" height="168" transform="translate(0 652)" fill="white"/>
<rect x="16" y="668" width="208" height="20" rx="4" fill="#F9F9F9"/>
<rect x="16" y="700" width="120" height="32" rx="4" fill="#F9F9F9"/>
<rect x="16" y="744" width="160" height="20" rx="4" fill="#F9F9F9"/>
<rect x="16" y="776" width="84" height="28" rx="4" fill="#F9F9F9"/>
<rect x="252" y="420" width="232" height="400" rx="8" fill="white"/>
<rect width="232" height="232" transform="translate(252 420)" fill="#F9F9F9"/>
<rect width="232" height="168" transform="translate(252 652)" fill="white"/>
<rect x="268" y="668" width="208" height="20" rx="4" fill="#F9F9F9"/>
<rect x="268" y="700" width="120" height="32" rx="4" fill="#F9F9F9"/>
<rect x="268" y="744" width="160" height="20" rx="4" fill="#F9F9F9"/>
<rect x="268" y="776" width="84" height="28" rx="4" fill="#F9F9F9"/>
<rect x="504" y="420" width="232" height="400" rx="8" fill="white"/>
<rect width="232" height="232" transform="translate(504 420)" fill="#F9F9F9"/>
<rect width="232" height="168" transform="translate(504 652)" fill="white"/>
<rect x="520" y="668" width="208" height="20" rx="4" fill="#F9F9F9"/>
<rect x="520" y="700" width="120" height="32" rx="4" fill="#F9F9F9"/>
<rect x="520" y="744" width="160" height="20" rx="4" fill="#F9F9F9"/>
<rect x="520" y="776" width="84" height="28" rx="4" fill="#F9F9F9"/>
<rect x="756" y="420" width="232" height="400" rx="8" fill="white"/>
<rect width="232" height="232" transform="translate(756 420)" fill="#F9F9F9"/>
<rect width="232" height="168" transform="translate(756 652)" fill="white"/>
<rect x="772" y="668" width="208" height="20" rx="4" fill="#F9F9F9"/>
<rect x="772" y="700" width="120" height="32" rx="4" fill="#F9F9F9"/>
<rect x="772" y="744" width="160" height="20" rx="4" fill="#F9F9F9"/>
<rect x="772" y="776" width="84" height="28" rx="4" fill="#F9F9F9"/>
<rect y="840" width="232" height="400" rx="8" fill="white"/>
<rect width="232" height="232" transform="translate(0 840)" fill="#F9F9F9"/>
<rect width="232" height="168" transform="translate(0 1072)" fill="white"/>
<rect x="16" y="1088" width="208" height="20" rx="4" fill="#F9F9F9"/>
<rect x="16" y="1120" width="120" height="32" rx="4" fill="#F9F9F9"/>
<rect x="16" y="1164" width="160" height="20" rx="4" fill="#F9F9F9"/>
<rect x="16" y="1196" width="84" height="28" rx="4" fill="#F9F9F9"/>
<rect x="252" y="840" width="232" height="400" rx="8" fill="white"/>
<rect width="232" height="232" transform="translate(252 840)" fill="#F9F9F9"/>
<rect width="232" height="168" transform="translate(252 1072)" fill="white"/>
<rect x="268" y="1088" width="208" height="20" rx="4" fill="#F9F9F9"/>
<rect x="268" y="1120" width="120" height="32" rx="4" fill="#F9F9F9"/>
<rect x="268" y="1164" width="160" height="20" rx="4" fill="#F9F9F9"/>
<rect x="268" y="1196" width="84" height="28" rx="4" fill="#F9F9F9"/>
<rect x="504" y="840" width="232" height="400" rx="8" fill="white"/>
<rect width="232" height="232" transform="translate(504 840)" fill="#F9F9F9"/>
<rect width="232" height="168" transform="translate(504 1072)" fill="white"/>
<rect x="520" y="1088" width="208" height="20" rx="4" fill="#F9F9F9"/>
<rect x="520" y="1120" width="120" height="32" rx="4" fill="#F9F9F9"/>
<rect x="520" y="1164" width="160" height="20" rx="4" fill="#F9F9F9"/>
<rect x="520" y="1196" width="84" height="28" rx="4" fill="#F9F9F9"/>
<rect x="756" y="840" width="232" height="400" rx="8" fill="white"/>
<rect width="232" height="232" transform="translate(756 840)" fill="#F9F9F9"/>
<rect width="232" height="168" transform="translate(756 1072)" fill="white"/>
<rect x="772" y="1088" width="208" height="20" rx="4" fill="#F9F9F9"/>
<rect x="772" y="1120" width="120" height="32" rx="4" fill="#F9F9F9"/>
<rect x="772" y="1164" width="160" height="20" rx="4" fill="#F9F9F9"/>
<rect x="772" y="1196" width="84" height="28" rx="4" fill="#F9F9F9"/>
<rect y="1260" width="232" height="400" rx="8" fill="white"/>
<rect width="232" height="232" transform="translate(0 1260)" fill="#F9F9F9"/>
<rect width="232" height="168" transform="translate(0 1492)" fill="white"/>
<rect x="16" y="1508" width="208" height="20" rx="4" fill="#F9F9F9"/>
<rect x="16" y="1540" width="120" height="32" rx="4" fill="#F9F9F9"/>
<rect x="16" y="1584" width="160" height="20" rx="4" fill="#F9F9F9"/>
<rect x="16" y="1616" width="84" height="28" rx="4" fill="#F9F9F9"/>
<rect x="252" y="1260" width="232" height="400" rx="8" fill="white"/>
<rect width="232" height="232" transform="translate(252 1260)" fill="#F9F9F9"/>
<rect width="232" height="168" transform="translate(252 1492)" fill="white"/>
<rect x="268" y="1508" width="208" height="20" rx="4" fill="#F9F9F9"/>
<rect x="268" y="1540" width="120" height="32" rx="4" fill="#F9F9F9"/>
<rect x="268" y="1584" width="160" height="20" rx="4" fill="#F9F9F9"/>
<rect x="268" y="1616" width="84" height="28" rx="4" fill="#F9F9F9"/>
<rect x="504" y="1260" width="232" height="400" rx="8" fill="white"/>
<rect width="232" height="232" transform="translate(504 1260)" fill="#F9F9F9"/>
<rect width="232" height="168" transform="translate(504 1492)" fill="white"/>
<rect x="520" y="1508" width="208" height="20" rx="4" fill="#F9F9F9"/>
<rect x="520" y="1540" width="120" height="32" rx="4" fill="#F9F9F9"/>
<rect x="520" y="1584" width="160" height="20" rx="4" fill="#F9F9F9"/>
<rect x="520" y="1616" width="84" height="28" rx="4" fill="#F9F9F9"/>
<rect x="756" y="1260" width="232" height="400" rx="8" fill="white"/>
<rect width="232" height="232" transform="translate(756 1260)" fill="#F9F9F9"/>
<rect width="232" height="168" transform="translate(756 1492)" fill="white"/>
<rect x="772" y="1508" width="208" height="20" rx="4" fill="#F9F9F9"/>
<rect x="772" y="1540" width="120" height="32" rx="4" fill="#F9F9F9"/>
<rect x="772" y="1584" width="160" height="20" rx="4" fill="#F9F9F9"/>
<rect x="772" y="1616" width="84" height="28" rx="4" fill="#F9F9F9"/>
<rect y="1680" width="232" height="400" rx="8" fill="white"/>
<rect width="232" height="232" transform="translate(0 1680)" fill="#F9F9F9"/>
<rect width="232" height="168" transform="translate(0 1912)" fill="white"/>
<rect x="16" y="1928" width="208" height="20" rx="4" fill="#F9F9F9"/>
<rect x="16" y="1960" width="120" height="32" rx="4" fill="#F9F9F9"/>
<rect x="16" y="2004" width="160" height="20" rx="4" fill="#F9F9F9"/>
<rect x="16" y="2036" width="84" height="28" rx="4" fill="#F9F9F9"/>
<rect x="252" y="1680" width="232" height="400" rx="8" fill="white"/>
<rect width="232" height="232" transform="translate(252 1680)" fill="#F9F9F9"/>
<rect width="232" height="168" transform="translate(252 1912)" fill="white"/>
<rect x="268" y="1928" width="208" height="20" rx="4" fill="#F9F9F9"/>
<rect x="268" y="1960" width="120" height="32" rx="4" fill="#F9F9F9"/>
<rect x="268" y="2004" width="160" height="20" rx="4" fill="#F9F9F9"/>
<rect x="268" y="2036" width="84" height="28" rx="4" fill="#F9F9F9"/>
<rect x="504" y="1680" width="232" height="400" rx="8" fill="white"/>
<rect width="232" height="232" transform="translate(504 1680)" fill="#F9F9F9"/>
<rect width="232" height="168" transform="translate(504 1912)" fill="white"/>
<rect x="520" y="1928" width="208" height="20" rx="4" fill="#F9F9F9"/>
<rect x="520" y="1960" width="120" height="32" rx="4" fill="#F9F9F9"/>
<rect x="520" y="2004" width="160" height="20" rx="4" fill="#F9F9F9"/>
<rect x="520" y="2036" width="84" height="28" rx="4" fill="#F9F9F9"/>
<rect x="756" y="1680" width="232" height="400" rx="8" fill="white"/>
<rect width="232" height="232" transform="translate(756 1680)" fill="#F9F9F9"/>
<rect width="232" height="168" transform="translate(756 1912)" fill="white"/>
<rect x="772" y="1928" width="208" height="20" rx="4" fill="#F9F9F9"/>
<rect x="772" y="1960" width="120" height="32" rx="4" fill="#F9F9F9"/>
<rect x="772" y="2004" width="160" height="20" rx="4" fill="#F9F9F9"/>
<rect x="772" y="2036" width="84" height="28" rx="4" fill="#F9F9F9"/>
</svg>
