<svg width="322" height="1120" viewBox="0 0 322 1120" fill="none" xmlns="http://www.w3.org/2000/svg">
<rect x="0.5" y="0.5" width="321" height="1119" rx="8.5" fill="white"/>
<rect x="25" y="17" width="100" height="20" rx="4" fill="#F9F9F9"/>
<rect x="25" y="41" width="272" height="16" rx="4" fill="#F9F9F9"/>
<rect x="25" y="73" width="272" height="1" rx="0.5" fill="#DFDFDF"/>
<rect x="25" y="90" width="100" height="28" rx="4" fill="#F9F9F9"/>
<rect x="25" y="134" width="272" height="44" rx="4" fill="#F9F9F9"/>
<rect x="25" y="194" width="120" height="20" rx="4" fill="#F9F9F9"/>
<rect x="25" y="226" width="200" height="20" rx="4" fill="#F9F9F9"/>
<rect x="25" y="258" width="96" height="20" rx="4" fill="#F9F9F9"/>
<rect x="25" y="290" width="160" height="20" rx="4" fill="#F9F9F9"/>
<rect x="25" y="322" width="120" height="20" rx="4" fill="#F9F9F9"/>
<rect x="25" y="354" width="200" height="20" rx="4" fill="#F9F9F9"/>
<rect x="25" y="386" width="96" height="20" rx="4" fill="#F9F9F9"/>
<rect x="25" y="418" width="160" height="20" rx="4" fill="#F9F9F9"/>
<rect x="25" y="450" width="96" height="20" rx="4" fill="#F9F9F9"/>
<rect x="25" y="482" width="200" height="20" rx="4" fill="#F9F9F9"/>
<rect x="25" y="518" width="272" height="1" rx="0.5" fill="#DFDFDF"/>
<rect x="25" y="535" width="100" height="28" rx="4" fill="#F9F9F9"/>
<rect x="25" y="579" width="60" height="36" rx="16" fill="#F9F9F9"/>
<rect x="93" y="579" width="100" height="36" rx="16" fill="#F9F9F9"/>
<rect x="201" y="579" width="96" height="36" rx="16" fill="#F9F9F9"/>
<rect x="25" y="627" width="100" height="36" rx="16" fill="#F9F9F9"/>
<rect x="133" y="627" width="96" height="36" rx="16" fill="#F9F9F9"/>
<rect x="25" y="679" width="272" height="1" rx="0.5" fill="#DFDFDF"/>
<rect x="25" y="696" width="100" height="28" rx="4" fill="#F9F9F9"/>
<rect x="25" y="740" width="120" height="20" rx="4" fill="#F9F9F9"/>
<rect x="25" y="772" width="200" height="20" rx="4" fill="#F9F9F9"/>
<rect x="25" y="804" width="96" height="20" rx="4" fill="#F9F9F9"/>
<rect x="25" y="836" width="160" height="20" rx="4" fill="#F9F9F9"/>
<rect x="25" y="868" width="120" height="20" rx="4" fill="#F9F9F9"/>
<rect x="25" y="900" width="200" height="20" rx="4" fill="#F9F9F9"/>
<rect x="25" y="936" width="272" height="1" rx="0.5" fill="#DFDFDF"/>
<rect x="25" y="953" width="100" height="28" rx="4" fill="#F9F9F9"/>
<rect x="25" y="997" width="272" height="1" rx="0.5" fill="#DFDFDF"/>
<rect x="25" y="1014" width="100" height="28" rx="4" fill="#F9F9F9"/>
<rect x="25" y="1058" width="272" height="1" rx="0.5" fill="#DFDFDF"/>
<rect x="25" y="1075" width="100" height="28" rx="4" fill="#F9F9F9"/>
<rect x="0.5" y="0.5" width="321" height="1119" rx="8.5" stroke="#F0F0F0"/>
</svg>
