<svg xmlns:xlink="http://www.w3.org/1999/xlink" viewBox="0 0 16 24" xmlns="http://www.w3.org/2000/svg" mr="8" class="Icon-sc-1iwi4w1-0 gdzhfK hover" iconSize="20" width="16"  height="24" ><path fill-rule="evenodd" clip-rule="evenodd" d="M4.16 1.872h7.68c.822 0 1.488.666 1.488 1.488v.103H2.672V3.36c0-.822.666-1.488 1.488-1.488zM2.672 5.335v11.469h10.656V5.335H2.672zm0 15.305v-1.964h10.656v1.964c0 .822-.666 1.488-1.488 1.488H4.16a1.488 1.488 0 01-1.488-1.488zM.8 3.36A3.36 3.36 0 014.16 0h7.68a3.36 3.36 0 013.36 3.36v17.28A3.36 3.36 0 0111.84 24H4.16A3.36 3.36 0 01.8 20.64V3.36zm6 16.447a.6.6 0 000 1.2h2.4a.6.6 0 100-1.2H6.8z" fill="#333333"></path></svg>