<svg xmlns:xlink="http://www.w3.org/1999/xlink" viewBox="0 0 24 24" xmlns="http://www.w3.org/2000/svg" class="Icon-sc-1iwi4w1-0 gdzhfK hover" mr="8" iconSize="20" width="24"  height="24" ><g clip-path="url(#user_svg__clip0)"><path d="M15.316 13.016c1.512-1.058 2.516-2.797 2.516-4.784A5.835 5.835 0 0012 2.4a5.835 5.835 0 00-5.832 5.832 5.79 5.79 0 002.517 4.784C4.343 14.291 1.2 17.996 1.2 22.37v.022c0 .896.843 1.609 1.825 1.609h17.95c.983 0 1.825-.713 1.825-1.61v-.02c0-4.375-3.143-8.08-7.484-9.354zM7.853 8.232a4.148 4.148 0 018.294 0 4.148 4.148 0 01-8.294 0zm13.122 14.083H3.025a.245.245 0 01-.14-.032c.054-4.45 4.126-8.057 9.115-8.057 4.99 0 9.05 3.596 9.115 8.057a.245.245 0 01-.14.032z" fill="#333333"></path></g><defs><clipPath id="user_svg__clip0"><path fill="#fff" transform="translate(1.2 2.4)" d="M0 0h21.6v21.6H0z"></path></clipPath></defs></svg>