<svg xmlns:xlink="http://www.w3.org/1999/xlink" width="8" height="8" viewBox="0 0 20 20" fill="#ffffff" xmlns="http://www.w3.org/2000/svg" ml="4" iconSize="10" class="Icon-sc-1iwi4w1-0 cePfda"><g clip-path="url(#star_svg__clip0)" fill="#FFFFFF"><path d="M19.54 6.85L13.62 5.5 10.51.29a.596.596 0 00-1.02 0L6.38 5.5.46 6.85a.599.599 0 00-.31.98l3.99 4.57-.55 6.04c-.02.21.07.41.24.54.17.12.39.15.59.07L10 16.64l5.58 2.39c.08.03.16.05.23.05h.01c.3.01.6-.26.6-.6 0-.06-.01-.12-.03-.17l-.54-5.93 3.99-4.57c.14-.16.18-.38.12-.58a.544.544 0 00-.42-.38z" fill="#FFFFFF"></path></g><defs><clipPath id="star_svg__clip0"><path fill="#fff" d="M0 0h20v19.08H0z"></path></clipPath></defs></svg>