<svg xmlns:xlink="http://www.w3.org/1999/xlink" viewBox="0 0 20 20" fill="greyT2" xmlns="http://www.w3.org/2000/svg" iconSize="20" class="Icon-sc-1iwi4w1-0 hPstgX" width="20"  height="20" ><g clip-path="url(#search_svg__clip0)" fill="#999999"><path d="M19.77 18.67l-3.76-3.76a9.062 9.062 0 002.12-5.83C18.13 4.06 14.07 0 9.06 0 4.06 0 0 4.06 0 9.08c0 5.02 4.06 9.08 9.06 9.08 2.23 0 4.27-.81 5.85-2.15l3.76 3.76c.3.3.8.3 1.1 0 .31-.3.31-.8 0-1.1zM9.06 16.6c-4.14 0-7.51-3.37-7.51-7.52 0-4.15 3.37-7.52 7.51-7.52s7.51 3.37 7.51 7.52c0 4.15-3.37 7.52-7.51 7.52z" fill="#999999"></path></g><defs><clipPath id="search_svg__clip0"><path fill="#fff" d="M0 0h20v20H0z"></path></clipPath></defs></svg>